<svg version="1.1" id="Layer_1" xmlns="http://www.w3.org/2000/svg" xmlns:xlink="http://www.w3.org/1999/xlink" x="0px" y="0px"
	 width="100%" viewBox="0 0 596 380" enable-background="new 0 0 596 380" xml:space="preserve">
<path fill="#000000" opacity="1.000000" stroke="none" 
	d="
M361.000000,0.999998 
	C439.648102,1.000000 518.296204,1.000000 596.972168,1.000000 
	C596.972168,127.618240 596.972168,254.236481 596.972168,380.927368 
	C398.428619,380.927368 199.857208,380.927368 1.142892,380.927368 
	C1.142892,254.333435 1.142892,127.666740 1.142892,1.000000 
	C79.772308,1.000000 158.420120,1.000000 237.759109,1.319216 
	C236.310501,4.769996 234.170715,7.901559 231.919769,11.364258 
	C228.538971,17.480898 225.881378,23.740437 221.854553,28.939465 
	C215.991699,36.508987 215.731705,43.618671 217.618988,53.069118 
	C223.063019,80.329857 235.335541,104.979126 244.202744,130.777222 
	C248.813339,119.347321 253.344284,108.114922 258.221130,96.827911 
	C259.291138,95.109383 260.015198,93.445457 260.928101,91.573822 
	C261.362274,90.864105 261.607605,90.362091 262.197083,89.827362 
	C262.967682,88.813370 263.394135,87.832092 263.899414,86.906616 
	C263.978180,86.962425 263.839783,86.827705 264.184692,86.817581 
	C268.562622,81.764214 272.595673,76.720963 276.837952,71.539352 
	C277.273499,71.155525 277.499756,70.910049 278.132263,70.780777 
	C286.342163,70.381416 294.145813,69.865868 301.959717,69.678024 
	C301.969849,70.661102 301.969788,71.316475 301.598938,71.979729 
	C296.756134,72.843987 293.931335,75.336182 293.139954,79.961845 
	C292.866119,81.562531 292.365082,83.124321 291.601288,84.757248 
	C289.245209,86.191673 286.943481,87.282326 285.331665,89.014809 
	C282.072357,92.518181 279.187378,96.369804 275.784576,100.067657 
	C274.936859,100.036606 274.452637,100.015709 274.005768,99.596153 
	C273.374451,96.118256 272.705750,93.039024 272.096252,89.550293 
	C271.982697,87.086685 271.809937,85.032600 271.546661,81.902428 
	C262.536438,93.384308 256.456177,105.201126 252.046768,117.909149 
	C250.988998,120.957718 250.439499,124.182655 249.543488,127.658493 
	C249.054214,129.323990 248.677673,130.657486 248.085083,132.280396 
	C247.577225,133.713089 247.285446,134.856369 246.791748,136.289246 
	C246.211517,137.368896 245.833176,138.158936 245.388336,139.087860 
	C240.902512,128.699493 236.545151,118.608643 232.140472,108.530357 
	C232.093170,108.542915 232.095337,108.413338 232.093109,108.051727 
	C231.729691,106.790421 231.368484,105.890724 231.049622,104.607307 
	C229.557343,100.195381 228.022720,96.167183 226.488083,92.138977 
	C226.892685,101.508408 228.300415,110.478119 229.952255,119.402649 
	C230.938400,124.730515 232.307419,129.987518 233.564743,135.616150 
	C233.733215,136.637604 233.841278,137.319290 233.741547,138.120865 
	C233.821671,138.926361 234.109589,139.611969 234.482422,140.692703 
	C236.583389,149.715607 238.599457,158.343384 240.609344,167.349579 
	C241.338791,169.720428 242.074448,171.712830 242.429596,173.861572 
	C240.391907,177.301758 240.808548,179.811432 244.676620,181.418869 
	C241.831985,197.868042 238.979675,213.933777 235.857819,230.240082 
	C235.788010,232.433212 235.647293,234.496811 236.241943,236.320633 
	C240.568497,249.590439 248.872498,260.602112 256.935059,273.318176 
	C265.444458,262.786774 273.398865,253.038559 281.246002,243.204742 
	C290.008301,232.224152 294.419403,219.558182 295.938934,205.669952 
	C296.912170,196.774796 298.486267,187.945374 300.152405,178.897690 
	C300.804657,177.224121 301.095551,175.739349 301.554474,174.009689 
	C302.704041,172.795486 303.685547,171.826187 305.015747,170.906067 
	C305.598755,170.969467 305.833069,170.983658 306.051758,171.375381 
	C304.689331,178.580658 302.206024,185.410873 302.220673,192.235703 
	C302.256622,208.976273 306.116638,225.053711 312.138763,240.787033 
	C316.893188,253.208359 320.254486,266.177460 323.929962,278.990631 
	C325.568115,284.701385 326.458038,290.626801 327.687531,296.454773 
	C331.306244,285.459503 334.308167,274.535614 336.807587,263.497925 
	C337.618134,259.918488 337.303528,256.033051 337.146423,252.302597 
	C337.029358,249.522812 336.337463,246.767227 336.243164,243.987244 
	C336.811462,243.959747 337.038177,243.945862 337.429871,244.270157 
	C337.916626,246.284637 338.238464,247.960922 338.781219,250.788086 
	C339.631561,249.071289 340.105652,248.448303 340.259399,247.754364 
	C343.293701,234.057419 346.290863,220.352249 349.427032,206.282532 
	C354.217773,185.696915 358.877045,165.477493 363.807129,145.050186 
	C364.158142,143.759979 364.238342,142.677673 364.352875,141.330841 
	C364.448303,140.715973 364.509369,140.365616 364.874268,139.768982 
	C368.242889,122.656219 371.307709,105.789749 374.372528,88.923271 
	C373.983765,88.818748 373.595001,88.714218 373.206207,88.609688 
	C372.820160,89.081291 372.434113,89.552902 371.522980,89.976868 
	C370.650635,89.875320 370.303314,89.821419 370.001312,89.360077 
	C374.607635,73.599396 379.196838,58.254356 383.672119,42.876167 
	C384.002899,41.739418 383.921844,40.125355 383.343109,39.136497 
	C377.325500,28.854218 371.166565,18.654655 365.102173,8.102944 
	C363.771667,5.515831 362.385834,3.257914 361.000000,0.999998 
z"/>
<path fill="#000000" opacity="1.000000" stroke="none" 
	d="
M241.000000,1.000000 
	C279.020905,1.000000 317.041779,1.000000 355.711853,1.383111 
	C356.589386,4.221349 357.086090,6.689068 356.971619,9.128114 
	C356.853882,11.637901 358.035889,12.648741 360.105042,13.490736 
	C356.695862,18.887445 353.340820,23.937193 349.672058,29.034203 
	C348.960083,29.770069 348.561829,30.458672 347.937775,31.387585 
	C343.552704,35.844631 339.393494,40.061371 334.894043,44.212097 
	C333.001251,45.723091 331.448730,47.300098 329.944092,48.933086 
	C329.992035,48.989071 329.882355,48.890736 329.526917,48.851791 
	C320.517944,54.400131 311.864441,59.987423 303.144836,65.932968 
	C303.053223,66.532745 303.027771,66.774277 302.558319,67.062958 
	C298.600128,67.110107 295.085938,67.110107 291.571747,67.110107 
	C291.541077,66.911469 291.510437,66.712830 291.479767,66.514191 
	C292.397705,66.200676 293.315674,65.887154 294.324677,65.542549 
	C287.907593,61.358032 281.695251,57.297718 275.472351,53.253613 
	C272.912415,51.589966 270.329803,49.961208 267.749847,48.287609 
	C267.742188,48.258636 267.682373,48.254898 267.718872,47.913277 
	C265.438080,45.788582 263.120850,44.005508 260.556152,42.002804 
	C257.487732,38.902992 254.666718,36.022820 251.858948,32.819172 
	C251.239609,32.005123 250.607040,31.514547 249.731201,30.794432 
	C245.583160,25.109299 241.678360,19.653704 237.863800,13.792116 
	C238.901459,11.066331 240.072815,8.806950 240.720383,6.406271 
	C241.179840,4.702972 240.932098,2.808914 241.000000,1.000000 
z"/>
<path fill="#707070" opacity="1.000000" stroke="none" 
	d="
M360.159210,13.143777 
	C358.035889,12.648741 356.853882,11.637901 356.971619,9.128114 
	C357.086090,6.689068 356.589386,4.221349 356.180542,1.383111 
	C357.388885,1.000000 358.777802,1.000000 360.583344,0.999998 
	C362.385834,3.257914 363.771667,5.515831 364.893250,8.400436 
	C363.139099,10.399343 361.649170,11.771562 360.159210,13.143777 
z"/>
<path fill="#707070" opacity="1.000000" stroke="none" 
	d="
M240.625000,1.000000 
	C240.932098,2.808914 241.179840,4.702972 240.720383,6.406271 
	C240.072815,8.806950 238.901459,11.066331 237.519135,13.744447 
	C235.399780,13.079553 233.715363,12.056335 232.030930,11.033120 
	C234.170715,7.901559 236.310501,4.769996 238.225143,1.319216 
	C238.750000,1.000000 239.500000,1.000000 240.625000,1.000000 
M237.933975,9.717197 
	C237.713913,9.620680 237.493835,9.524162 237.273773,9.427649 
	C237.290375,9.836979 237.306961,10.246309 237.323563,10.655640 
	C237.545746,10.566608 237.767914,10.477577 237.933975,9.717197 
z"/>
<path fill="#FBFBFB" opacity="1.000000" stroke="none" 
	d="
M236.127350,229.999527 
	C238.979675,213.933777 241.831985,197.868042 244.844360,181.064178 
	C245.019531,179.553314 245.034622,178.780579 245.107407,177.673431 
	C245.062225,176.898453 244.959351,176.457916 244.984604,175.735687 
	C245.410919,174.969681 245.709106,174.485367 246.144760,173.644745 
	C246.226212,172.537079 246.170181,171.785690 246.429657,170.914917 
	C247.889954,160.865860 249.034775,150.936218 250.541382,140.907654 
	C251.936157,136.874771 252.969116,132.940811 254.152527,128.691864 
	C258.815491,126.563614 263.327972,124.750343 268.212952,122.956879 
	C269.418457,122.577766 270.251495,122.178848 271.410065,121.782516 
	C273.489990,120.863930 275.244415,119.942757 277.327454,119.066132 
	C279.878357,118.651588 282.209991,118.478462 284.301910,117.678482 
	C290.022583,115.490784 295.553284,112.775055 301.345886,110.822144 
	C303.654022,110.043983 307.170929,109.716850 308.881866,110.940338 
	C312.689270,113.663048 315.704895,117.492950 319.017578,121.307968 
	C318.936462,122.324432 318.881073,122.904526 318.497406,123.313820 
	C314.486053,120.279076 310.370758,119.536125 305.982178,120.988396 
	C302.064850,122.284721 298.248444,123.882690 294.360992,125.273422 
	C287.442932,127.748344 280.504822,130.167282 274.509491,132.280319 
	C277.728027,132.799179 282.269409,135.755585 287.411865,131.989502 
	C292.906525,131.203690 298.049957,130.250107 303.223633,129.507004 
	C310.345428,128.484055 317.786682,126.335228 322.997253,134.481415 
	C322.705414,135.301895 322.348938,135.996506 321.985870,136.000000 
	C310.579498,136.109039 300.715942,141.051270 290.828400,145.902069 
	C290.347229,146.138153 290.062531,146.774689 289.686340,147.224747 
	C292.488861,147.194214 294.735504,146.063507 297.104736,145.327240 
	C305.397827,142.750076 313.733215,140.308975 322.340271,138.013885 
	C323.722778,140.446747 324.817566,142.681900 325.602661,144.872589 
	C324.107758,145.328949 322.745514,145.604248 321.768982,146.370834 
	C318.146057,149.214844 315.031097,152.981323 311.018890,154.990540 
	C304.733215,158.138245 297.873505,160.139694 291.479889,162.542847 
	C293.945068,163.765961 296.978394,165.270981 300.067841,166.803802 
	C298.982666,170.281143 298.069550,173.207062 296.887177,176.343750 
	C296.360016,177.336548 296.102112,178.118561 295.885498,178.914215 
	C295.926758,178.927872 295.924591,178.840942 295.596008,178.687805 
	C295.044952,178.629059 294.822479,178.723450 294.263855,178.861053 
	C291.015533,180.741104 288.103333,182.577896 285.551758,184.187225 
	C285.636658,185.566010 286.124908,186.966705 285.725952,188.036591 
	C282.113525,197.724258 281.762299,207.739700 281.872009,217.941483 
	C282.008728,230.652740 275.807892,240.540649 266.033386,248.072128 
	C258.436218,253.925903 253.164368,253.227600 247.160110,245.828430 
	C243.118317,240.847672 239.780243,235.295868 236.127350,229.999527 
M286.495331,148.562790 
	C286.495331,148.562790 286.462067,148.502167 286.495331,148.562790 
z"/>
<path fill="#FBFBFB" opacity="1.000000" stroke="none" 
	d="
M231.919769,11.364256 
	C233.715363,12.056335 235.399780,13.079553 237.428879,14.150439 
	C241.678360,19.653704 245.583160,25.109299 249.741119,31.109066 
	C250.611404,32.149708 251.228546,32.646179 251.845703,33.142647 
	C254.666718,36.022820 257.487732,38.902992 260.574860,42.342964 
	C263.121429,44.686806 265.401917,46.470852 267.682373,48.254898 
	C267.682373,48.254898 267.742188,48.258636 267.747437,48.628960 
	C270.506042,51.603508 273.202423,54.271301 276.023956,56.799427 
	C283.008270,63.057384 283.030273,63.030949 277.743652,70.175980 
	C277.663696,70.284035 277.728699,70.499329 277.726044,70.664581 
	C277.499756,70.910049 277.273499,71.155525 276.493225,71.520966 
	C271.906067,76.703186 267.872925,81.765442 263.839783,86.827698 
	C263.839783,86.827705 263.978180,86.962425 263.561096,86.938858 
	C262.713623,87.896881 262.283295,88.878479 261.852936,89.860077 
	C261.607605,90.362091 261.362274,90.864105 260.588196,91.629822 
	C259.331329,93.556519 258.603271,95.219521 257.875214,96.882523 
	C253.344284,108.114922 248.813339,119.347321 244.202744,130.777222 
	C235.335541,104.979126 223.063019,80.329857 217.618988,53.069118 
	C215.731705,43.618671 215.991699,36.508987 221.854553,28.939465 
	C225.881378,23.740437 228.538971,17.480898 231.919769,11.364256 
z"/>
<path fill="#FBFBFB" opacity="1.000000" stroke="none" 
	d="
M360.105042,13.490739 
	C361.649170,11.771562 363.139099,10.399343 364.837952,8.729633 
	C371.166565,18.654655 377.325500,28.854218 383.343109,39.136497 
	C383.921844,40.125355 384.002899,41.739418 383.672119,42.876167 
	C379.196838,58.254356 374.607635,73.599396 369.763031,89.562729 
	C364.180481,103.833176 358.881500,117.493530 353.123322,132.337662 
	C352.529938,129.811050 352.351593,128.528656 351.928680,127.332764 
	C347.976929,116.158089 343.983246,104.998222 339.902069,93.510818 
	C333.043762,84.945244 326.573578,76.439369 319.395294,68.580276 
	C316.174316,65.053810 315.918060,62.746578 319.207794,59.587101 
	C322.840027,56.098724 326.330261,52.462547 329.882355,48.890739 
	C329.882355,48.890736 329.992035,48.989071 330.284607,48.981667 
	C332.129578,47.408878 333.681915,45.843498 335.234283,44.278114 
	C339.393494,40.061371 343.552704,35.844631 348.250519,31.349064 
	C349.188019,30.375805 349.586914,29.681376 349.985809,28.986942 
	C353.340820,23.937193 356.695862,18.887445 360.105042,13.490739 
z"/>
<path fill="#FAFAFA" opacity="1.000000" stroke="none" 
	d="
M318.825684,123.484619 
	C318.881073,122.904526 318.936462,122.324432 319.417419,121.246918 
	C320.903259,115.863762 321.963531,110.978020 322.871582,106.793800 
	C326.172394,106.065033 328.584381,105.532494 331.418091,105.009186 
	C335.316345,104.050430 337.150360,105.614212 338.644501,108.728195 
	C341.294281,114.250679 344.376160,119.565826 347.347473,125.308472 
	C349.109772,130.106018 350.801819,134.562820 352.673828,139.493576 
	C357.590149,128.212082 362.248047,117.523560 367.278748,107.051613 
	C367.650146,110.049179 367.901031,112.857834 367.599854,115.605988 
	C366.706757,123.755203 365.596069,131.880569 364.570435,140.015259 
	C364.509369,140.365616 364.448303,140.715973 364.079712,141.533142 
	C363.693573,143.085999 363.614960,144.172043 363.536346,145.258087 
	C358.877045,165.477493 354.217773,185.696915 349.155273,206.482574 
	C345.485107,216.337311 342.272339,225.645569 338.895325,234.893875 
	C338.360931,236.357315 337.085510,237.550171 336.086151,238.483353 
	C331.334442,220.425705 326.716125,202.734604 321.902130,185.096924 
	C321.043823,181.952377 321.360840,179.907379 323.518097,177.119858 
	C325.855377,174.099716 326.537506,169.798645 328.178894,165.731476 
	C329.145020,162.819519 330.321503,160.256744 330.464386,157.637558 
	C330.584198,155.441315 329.497925,153.179291 328.993805,150.533936 
	C328.992737,148.750977 328.943451,147.380478 328.939819,145.572174 
	C328.974121,143.087921 328.962830,141.041473 329.028625,138.591766 
	C328.756500,136.433990 328.407257,134.679474 327.963806,132.588135 
	C326.793060,130.227020 326.603149,126.697105 322.719177,129.029297 
	C322.354187,128.571594 322.086121,128.359894 321.908569,127.828262 
	C320.941284,126.167091 319.883484,124.825851 318.825684,123.484619 
z"/>
<path fill="#181818" opacity="1.000000" stroke="none" 
	d="
M335.901550,244.000870 
	C336.337463,246.767227 337.029358,249.522812 337.146423,252.302597 
	C337.303528,256.033051 337.618134,259.918488 336.807587,263.497925 
	C334.308167,274.535614 331.306244,285.459503 327.687531,296.454773 
	C326.458038,290.626801 325.568115,284.701385 323.929962,278.990631 
	C320.254486,266.177460 316.893188,253.208359 312.138763,240.787033 
	C306.116638,225.053711 302.256622,208.976273 302.220673,192.235703 
	C302.206024,185.410873 304.689331,178.580658 306.390869,171.315948 
	C307.458893,169.821060 308.076721,168.680862 308.904083,167.721329 
	C311.005371,165.284439 312.982788,165.496735 314.160309,168.495346 
	C315.336151,171.489716 316.253479,174.600357 317.081909,177.713837 
	C320.904633,192.080704 324.659790,206.465561 328.433075,220.845566 
	C330.331970,228.082169 332.186737,235.330734 334.166931,242.544937 
	C334.331329,243.143845 335.304291,243.520798 335.901550,244.000870 
z"/>
<path fill="#7E7E7E" opacity="1.000000" stroke="none" 
	d="
M235.857819,230.240082 
	C239.780243,235.295868 243.118317,240.847672 247.160110,245.828430 
	C253.164368,253.227600 258.436218,253.925903 266.033386,248.072128 
	C275.807892,240.540649 282.008728,230.652740 281.872009,217.941483 
	C281.762299,207.739700 282.113525,197.724258 285.725952,188.036591 
	C286.124908,186.966705 285.636658,185.566010 285.551758,184.187225 
	C288.103333,182.577896 291.015533,180.741104 294.454468,179.110474 
	C295.295685,179.158096 295.610138,178.999527 295.924591,178.840942 
	C295.924591,178.840942 295.926758,178.927872 296.267456,179.055618 
	C297.669128,179.151077 298.730103,179.118790 299.791016,179.086502 
	C298.486267,187.945374 296.912170,196.774796 295.938934,205.669952 
	C294.419403,219.558182 290.008301,232.224152 281.246002,243.204742 
	C273.398865,253.038559 265.444458,262.786774 256.935059,273.318176 
	C248.872498,260.602112 240.568497,249.590439 236.241943,236.320633 
	C235.647293,234.496811 235.788010,232.433212 235.857819,230.240082 
z"/>
<path fill="#F7F7F7" opacity="1.000000" stroke="none" 
	d="
M271.084534,121.779938 
	C270.251495,122.178848 269.418457,122.577766 268.151367,122.645683 
	C265.921387,122.259857 264.125397,122.205040 262.046478,121.971497 
	C263.177643,118.922752 264.591797,116.052734 266.233398,112.928848 
	C269.689880,108.475929 272.918945,104.276871 276.148010,100.077812 
	C279.187378,96.369804 282.072357,92.518181 285.331665,89.014809 
	C286.943481,87.282326 289.245209,86.191673 291.999634,84.903282 
	C304.028534,86.336494 315.719543,85.949120 325.483368,93.342804 
	C326.129272,93.831902 327.734100,93.054596 329.271667,92.937790 
	C330.818512,93.254250 331.986664,93.499260 333.521851,93.743515 
	C334.867096,93.731117 335.845306,93.719482 337.124817,93.871964 
	C338.262115,94.379509 339.098083,94.722931 339.867920,95.401985 
	C339.134674,97.816368 338.467590,99.895126 337.376160,101.965073 
	C334.139282,102.494568 331.326752,103.032875 328.187317,103.663498 
	C326.787323,103.721458 325.714203,103.687103 324.736084,103.340614 
	C323.219879,102.323006 321.608704,101.617531 319.685150,100.718666 
	C318.758209,100.279732 318.163879,99.939369 317.525940,99.803040 
	C309.637726,98.117409 301.764709,96.338898 293.825043,94.940613 
	C292.733002,94.748306 291.032867,96.249611 290.071747,97.362068 
	C284.346558,103.988617 278.709717,110.693558 273.163086,117.470299 
	C272.181030,118.670151 271.763000,120.331627 271.084534,121.779938 
z"/>
<path fill="#7E7E7E" opacity="1.000000" stroke="none" 
	d="
M328.945618,150.946381 
	C329.497925,153.179291 330.584198,155.441315 330.464386,157.637558 
	C330.321503,160.256744 329.145020,162.819519 327.847595,165.826935 
	C325.166260,169.957245 323.053558,173.667328 320.256500,178.579254 
	C318.049347,171.269760 316.371246,165.712326 314.682495,160.119644 
	C309.460114,162.287247 305.883972,165.495239 304.667053,170.856873 
	C303.685547,171.826187 302.704041,172.795486 301.256409,174.161682 
	C299.579010,175.083389 298.367737,175.608200 297.156464,176.132996 
	C298.069550,173.207062 298.982666,170.281143 300.067841,166.803802 
	C296.978394,165.270981 293.945068,163.765961 291.479889,162.542847 
	C297.873505,160.139694 304.733215,158.138245 311.018890,154.990540 
	C315.031097,152.981323 318.146057,149.214844 321.768982,146.370834 
	C322.745514,145.604248 324.107758,145.328949 325.685242,145.116211 
	C326.330475,145.617371 326.583435,145.830475 326.900452,146.394135 
	C327.624878,148.145264 328.285248,149.545822 328.945618,150.946381 
z"/>
<path fill="#181818" opacity="1.000000" stroke="none" 
	d="
M328.892914,92.866341 
	C327.734100,93.054596 326.129272,93.831902 325.483368,93.342804 
	C315.719543,85.949120 304.028534,86.336494 292.366150,84.849915 
	C292.365082,83.124321 292.866119,81.562531 293.139954,79.961845 
	C293.931335,75.336182 296.756134,72.843987 302.025635,71.990021 
	C304.879913,71.341339 306.936676,70.690247 309.359467,70.006149 
	C311.139648,70.264725 312.553802,70.556297 314.027588,71.210632 
	C316.493866,73.330383 318.805359,75.248123 321.357330,76.759911 
	C322.290558,77.312782 323.794678,76.902023 325.327454,77.067444 
	C326.795898,78.670547 327.975250,80.137070 328.989380,81.924194 
	C328.451202,82.537476 328.078308,82.830139 327.337341,83.204185 
	C326.304016,86.741470 324.209778,90.484291 328.892914,92.866341 
z"/>
<path fill="#FBFBFB" opacity="1.000000" stroke="none" 
	d="
M233.949356,138.000961 
	C233.841278,137.319290 233.733215,136.637604 233.735367,135.207977 
	C232.952820,128.374817 231.860229,122.309074 231.264023,116.194931 
	C231.019745,113.689735 231.847641,111.079979 232.187805,108.517792 
	C236.545151,118.608643 240.902512,128.699493 245.388336,139.087860 
	C245.833176,138.158936 246.211517,137.368896 247.153198,136.357788 
	C248.155945,137.455078 248.595367,138.773422 248.966644,140.489212 
	C248.527664,143.645599 248.242828,146.419403 247.769104,149.160583 
	C246.567123,156.115494 245.280487,163.055786 243.714111,169.964355 
	C242.472153,168.941559 241.543854,167.956360 240.615540,166.971146 
	C238.599457,158.343384 236.583389,149.715607 234.649261,140.400604 
	C234.470566,139.142578 234.209961,138.571762 233.949356,138.000961 
z"/>
<path fill="#101010" opacity="1.000000" stroke="none" 
	d="
M305.015747,170.906067 
	C305.883972,165.495239 309.460114,162.287247 314.682495,160.119644 
	C316.371246,165.712326 318.049347,171.269760 320.256500,178.579254 
	C323.053558,173.667328 325.166260,169.957245 327.610199,166.151672 
	C326.537506,169.798645 325.855377,174.099716 323.518097,177.119858 
	C321.360840,179.907379 321.043823,181.952377 321.902130,185.096924 
	C326.716125,202.734604 331.334442,220.425705 336.041443,238.858093 
	C336.463867,241.055725 336.864410,242.493851 337.264923,243.931976 
	C337.038177,243.945862 336.811462,243.959747 336.243164,243.987244 
	C335.304291,243.520798 334.331329,243.143845 334.166931,242.544937 
	C332.186737,235.330734 330.331970,228.082169 328.433075,220.845566 
	C324.659790,206.465561 320.904633,192.080704 317.081909,177.713837 
	C316.253479,174.600357 315.336151,171.489716 314.160309,168.495346 
	C312.982788,165.496735 311.005371,165.284439 308.904083,167.721329 
	C308.076721,168.680862 307.458893,169.821060 306.406525,170.938416 
	C305.833069,170.983658 305.598755,170.969467 305.015747,170.906067 
z"/>
<path fill="#212121" opacity="1.000000" stroke="none" 
	d="
M337.800476,101.973877 
	C338.467590,99.895126 339.134674,97.816368 339.930176,95.096397 
	C340.039581,94.248146 340.020630,94.041115 340.001709,93.834076 
	C343.983246,104.998222 347.976929,116.158089 351.928680,127.332764 
	C352.351593,128.528656 352.529938,129.811050 353.123322,132.337662 
	C358.881500,117.493530 364.180481,103.833176 369.717743,89.970161 
	C370.303314,89.821419 370.650635,89.875320 371.547180,90.363029 
	C370.366302,96.142906 368.636139,101.488983 366.905945,106.835052 
	C362.248047,117.523560 357.590149,128.212082 352.673828,139.493576 
	C350.801819,134.562820 349.109772,130.106018 347.610107,125.086601 
	C347.541656,123.256744 347.519836,121.875832 346.980255,120.741096 
	C343.989899,114.452278 340.873627,108.223335 337.800476,101.973877 
z"/>
<path fill="#F7F7F7" opacity="1.000000" stroke="none" 
	d="
M272.036987,89.959793 
	C272.705750,93.039024 273.374451,96.118256 273.705292,99.744179 
	C270.169006,104.553558 266.970581,108.816238 263.481323,113.244545 
	C261.456970,116.511810 259.723450,119.613457 257.686768,122.859596 
	C255.928497,124.335999 254.473343,125.667908 252.665894,126.998344 
	C251.843872,126.986488 251.374161,126.976112 250.939789,126.601990 
	C252.130020,123.675980 253.044556,120.969269 254.482086,118.576820 
	C260.245605,108.984871 266.171265,99.490341 272.036987,89.959793 
z"/>
<path fill="#757575" opacity="1.000000" stroke="none" 
	d="
M313.967987,70.847870 
	C312.553802,70.556297 311.139648,70.264725 308.976196,69.913925 
	C306.134460,69.686577 304.041962,69.518448 301.949463,69.350327 
	C294.145813,69.865868 286.342163,70.381416 278.132263,70.780777 
	C277.728699,70.499329 277.663696,70.284035 277.743652,70.175980 
	C283.030273,63.030949 283.008270,63.057384 276.023956,56.799427 
	C273.202423,54.271301 270.506042,51.603508 267.755096,48.657932 
	C270.329803,49.961208 272.912415,51.589966 275.472351,53.253613 
	C281.695251,57.297718 287.907593,61.358032 294.324677,65.542549 
	C293.315674,65.887154 292.397705,66.200676 291.479767,66.514191 
	C291.510437,66.712830 291.541077,66.911469 291.571747,67.110107 
	C295.085938,67.110107 298.600128,67.110107 302.931000,67.187630 
	C307.175934,67.848450 310.604218,68.431740 314.014954,69.012016 
	C313.997437,69.008995 313.986176,68.975235 313.900452,69.185043 
	C313.865814,69.879189 313.916901,70.363533 313.967987,70.847870 
z"/>
<path fill="#7E7E7E" opacity="1.000000" stroke="none" 
	d="
M272.096222,89.550285 
	C266.171265,99.490341 260.245605,108.984871 254.482086,118.576820 
	C253.044556,120.969269 252.130020,123.675980 250.729828,126.685020 
	C250.256378,127.400299 249.980270,127.465195 249.656235,127.326477 
	C250.439499,124.182655 250.988998,120.957718 252.046768,117.909149 
	C256.456177,105.201126 262.536438,93.384308 271.546661,81.902428 
	C271.809937,85.032600 271.982697,87.086685 272.096222,89.550285 
z"/>
<path fill="#7E7E7E" opacity="1.000000" stroke="none" 
	d="
M337.429871,244.270157 
	C336.864410,242.493851 336.463867,241.055725 336.108032,239.242874 
	C337.085510,237.550171 338.360931,236.357315 338.895325,234.893875 
	C342.272339,225.645569 345.485107,216.337311 349.023834,206.848785 
	C346.290863,220.352249 343.293701,234.057419 340.259399,247.754364 
	C340.105652,248.448303 339.631561,249.071289 338.781219,250.788086 
	C338.238464,247.960922 337.916626,246.284637 337.429871,244.270157 
z"/>
<path fill="#707070" opacity="1.000000" stroke="none" 
	d="
M367.278748,107.051620 
	C368.636139,101.488983 370.366302,96.142906 372.072266,90.410667 
	C372.434113,89.552902 372.820160,89.081291 373.206207,88.609688 
	C373.595001,88.714218 373.983765,88.818748 374.372528,88.923271 
	C371.307709,105.789749 368.242889,122.656219 364.874268,139.768982 
	C365.596069,131.880569 366.706757,123.755203 367.599854,115.605988 
	C367.901031,112.857834 367.650146,110.049179 367.278748,107.051620 
z"/>
<path fill="#777777" opacity="1.000000" stroke="none" 
	d="
M232.140488,108.530350 
	C231.847641,111.079979 231.019745,113.689735 231.264023,116.194931 
	C231.860229,122.309074 232.952820,128.374817 233.674957,134.868195 
	C232.307419,129.987518 230.938400,124.730515 229.952255,119.402649 
	C228.300415,110.478119 226.892685,101.508408 226.488083,92.138977 
	C228.022720,96.167183 229.557343,100.195381 230.673721,104.780228 
	C230.868759,106.362358 231.482056,107.387848 232.095337,108.413330 
	C232.095337,108.413338 232.093170,108.542915 232.140488,108.530350 
z"/>
<path fill="#F2F2F2" opacity="1.000000" stroke="none" 
	d="
M249.034775,140.091766 
	C248.595367,138.773422 248.155945,137.455078 247.355103,136.068176 
	C247.285446,134.856369 247.577225,133.713089 248.422455,132.263824 
	C250.002121,130.966202 251.028320,129.974548 252.378052,129.020905 
	C253.135086,129.041534 253.568573,129.024185 254.002075,129.006836 
	C252.969116,132.940811 251.936157,136.874771 250.437622,140.653305 
	C249.659622,140.362518 249.347198,140.227142 249.034775,140.091766 
z"/>
<path fill="#292929" opacity="1.000000" stroke="none" 
	d="
M263.772156,113.078918 
	C266.970581,108.816238 270.169006,104.553558 273.667908,100.142845 
	C274.452637,100.015709 274.936859,100.036606 275.784546,100.067657 
	C272.918945,104.276871 269.689880,108.475929 265.856049,112.944504 
	C264.758240,113.168983 264.265198,113.123940 263.772156,113.078918 
z"/>
<path fill="#757575" opacity="1.000000" stroke="none" 
	d="
M264.184692,86.817581 
	C267.872925,81.765442 271.906067,76.703186 276.283997,71.659317 
	C272.595673,76.720963 268.562622,81.764214 264.184692,86.817581 
z"/>
<path fill="#181818" opacity="1.000000" stroke="none" 
	d="
M245.049713,178.007843 
	C245.034622,178.780579 245.019531,179.553314 244.836700,180.680756 
	C240.808548,179.811432 240.391907,177.301758 242.604828,173.876419 
	C243.358032,173.877258 243.578476,173.947540 244.185699,173.968079 
	C245.035446,173.993927 245.521362,173.997498 246.007294,174.001053 
	C245.709106,174.485367 245.410919,174.969681 244.689728,175.773651 
	C244.527710,176.731476 244.788712,177.369659 245.049713,178.007843 
z"/>
<path fill="#101010" opacity="1.000000" stroke="none" 
	d="
M296.887177,176.343765 
	C298.367737,175.608200 299.579010,175.083389 301.088379,174.406586 
	C301.095551,175.739349 300.804657,177.224121 300.152405,178.897690 
	C298.730103,179.118790 297.669128,179.151077 296.226196,179.041962 
	C296.102112,178.118561 296.360016,177.336548 296.887177,176.343765 
z"/>
<path fill="#0F0F0F" opacity="1.000000" stroke="none" 
	d="
M301.959717,69.678024 
	C304.041962,69.518448 306.134460,69.686577 308.610229,69.946922 
	C306.936676,70.690247 304.879913,71.341339 302.396423,71.982147 
	C301.969788,71.316475 301.969849,70.661102 301.959717,69.678024 
z"/>
<path fill="#F2F2F2" opacity="1.000000" stroke="none" 
	d="
M243.821884,173.945801 
	C243.578476,173.947540 243.358032,173.877258 242.985321,173.720093 
	C242.074448,171.712830 241.338791,169.720428 240.609344,167.349579 
	C241.543854,167.956360 242.472153,168.941559 243.695770,170.222641 
	C244.038452,170.684494 244.085846,170.850494 244.051514,171.377136 
	C243.920471,172.473785 243.871170,173.209793 243.821884,173.945801 
z"/>
<path fill="#FBFBFB" opacity="1.000000" stroke="none" 
	d="
M252.054535,128.982910 
	C251.028320,129.974548 250.002121,130.966202 248.638519,131.974426 
	C248.677673,130.657486 249.054214,129.323990 249.543488,127.658493 
	C249.980270,127.465195 250.256378,127.400299 250.694504,127.048767 
	C251.374161,126.976112 251.843872,126.986488 252.591537,127.282013 
	C252.597855,128.039062 252.326202,128.510986 252.054535,128.982910 
z"/>
<path fill="#757575" opacity="1.000000" stroke="none" 
	d="
M258.221130,96.827911 
	C258.603271,95.219521 259.331329,93.556519 260.399323,91.837524 
	C260.015198,93.445457 259.291138,95.109383 258.221130,96.827911 
z"/>
<path fill="#707070" opacity="1.000000" stroke="none" 
	d="
M363.807129,145.050186 
	C363.614960,144.172043 363.693573,143.085999 364.045349,141.797668 
	C364.238342,142.677673 364.158142,143.759979 363.807129,145.050186 
z"/>
<path fill="#757575" opacity="1.000000" stroke="none" 
	d="
M262.197083,89.827362 
	C262.283295,88.878479 262.713623,87.896881 263.482300,86.883049 
	C263.394135,87.832092 262.967682,88.813370 262.197083,89.827362 
z"/>
<path fill="#777777" opacity="1.000000" stroke="none" 
	d="
M233.741547,138.120865 
	C234.209961,138.571762 234.470566,139.142578 234.564346,140.005463 
	C234.109589,139.611969 233.821671,138.926361 233.741547,138.120865 
z"/>
<path fill="#F2F2F2" opacity="1.000000" stroke="none" 
	d="
M232.093124,108.051727 
	C231.482056,107.387848 230.868759,106.362358 230.631378,105.163956 
	C231.368484,105.890724 231.729691,106.790421 232.093124,108.051727 
z"/>
<path fill="#777777" opacity="1.000000" stroke="none" 
	d="
M339.902100,93.510818 
	C340.020630,94.041115 340.039581,94.248146 339.996338,94.760773 
	C339.098083,94.722931 338.262115,94.379509 337.127441,93.532700 
	C334.270721,89.220734 331.712646,85.412163 329.154602,81.603584 
	C327.975250,80.137070 326.795898,78.670547 325.165466,76.777267 
	C321.138306,73.892090 317.562256,71.433662 313.986176,68.975235 
	C313.986176,68.975235 313.997437,69.008995 313.918091,68.646805 
	C310.296143,67.381310 306.753540,66.478012 303.210938,65.574715 
	C311.864441,59.987423 320.517944,54.400131 329.526917,48.851791 
	C326.330261,52.462547 322.840027,56.098724 319.207794,59.587101 
	C315.918060,62.746578 316.174316,65.053810 319.395294,68.580276 
	C326.573578,76.439369 333.043762,84.945244 339.902100,93.510818 
z"/>
<path fill="#0F0F0F" opacity="1.000000" stroke="none" 
	d="
M303.144836,65.932968 
	C306.753540,66.478012 310.296143,67.381310 313.935608,68.649826 
	C310.604218,68.431740 307.175934,67.848450 303.375000,67.140480 
	C303.027771,66.774277 303.053223,66.532745 303.144836,65.932968 
z"/>
<path fill="#757575" opacity="1.000000" stroke="none" 
	d="
M267.718872,47.913277 
	C265.401917,46.470852 263.121429,44.686806 260.822266,42.562599 
	C263.120850,44.005508 265.438080,45.788582 267.718872,47.913277 
z"/>
<path fill="#777777" opacity="1.000000" stroke="none" 
	d="
M334.894043,44.212097 
	C333.681915,45.843498 332.129578,47.408878 330.236694,48.925682 
	C331.448730,47.300098 333.001251,45.723091 334.894043,44.212097 
z"/>
<path fill="#777777" opacity="1.000000" stroke="none" 
	d="
M349.672058,29.034206 
	C349.586914,29.681376 349.188019,30.375805 348.476349,31.108755 
	C348.561829,30.458672 348.960083,29.770069 349.672058,29.034206 
z"/>
<path fill="#757575" opacity="1.000000" stroke="none" 
	d="
M251.858948,32.819172 
	C251.228546,32.646179 250.611404,32.149708 249.984360,31.338606 
	C250.607040,31.514547 251.239609,32.005123 251.858948,32.819172 
z"/>
<path fill="#000000" opacity="1.000000" stroke="none" 
	d="
M237.962036,10.052872 
	C237.767914,10.477577 237.545746,10.566608 237.323563,10.655640 
	C237.306961,10.246309 237.290375,9.836979 237.273773,9.427647 
	C237.493835,9.524162 237.713913,9.620680 237.962036,10.052872 
z"/>
<path fill="#0B0B0B" opacity="1.000000" stroke="none" 
	d="
M324.641083,103.652748 
	C325.714203,103.687103 326.787323,103.721458 328.457031,104.098022 
	C329.701172,104.626801 330.348785,104.813385 330.996368,104.999962 
	C328.584381,105.532494 326.172394,106.065033 322.871582,106.793800 
	C321.963531,110.978020 320.903259,115.863762 319.443115,120.810547 
	C315.704895,117.492950 312.689270,113.663048 308.881866,110.940338 
	C307.170929,109.716850 303.654022,110.043983 301.345886,110.822144 
	C295.553284,112.775055 290.022583,115.490784 284.301910,117.678482 
	C282.209991,118.478462 279.878357,118.651588 277.438293,118.719810 
	C286.780060,116.417213 291.016418,108.813057 295.039429,101.306725 
	C303.586609,102.172203 311.791504,103.003021 320.394318,103.982941 
	C322.075195,103.972282 323.358124,103.812515 324.641083,103.652748 
z"/>
<path fill="#818181" opacity="1.000000" stroke="none" 
	d="
M319.996399,103.833839 
	C311.791504,103.003021 303.586609,102.172203 295.039429,101.306725 
	C291.016418,108.813057 286.780060,116.417213 277.109680,118.675262 
	C275.244415,119.942757 273.489990,120.863930 271.410065,121.782524 
	C271.763000,120.331627 272.181030,118.670151 273.163086,117.470299 
	C278.709717,110.693558 284.346558,103.988617 290.071747,97.362068 
	C291.032867,96.249611 292.733002,94.748306 293.825043,94.940613 
	C301.764709,96.338898 309.637726,98.117409 317.525940,99.803040 
	C318.163879,99.939369 318.758209,100.279732 319.685181,101.084442 
	C319.997162,102.373688 319.996765,103.103767 319.996399,103.833839 
z"/>
<path fill="#838383" opacity="1.000000" stroke="none" 
	d="
M318.497406,123.313812 
	C319.883484,124.825851 320.941284,126.167091 321.523743,127.905823 
	C318.544586,127.528389 315.867584,125.755844 313.567566,126.155151 
	C304.671204,127.699661 295.895050,129.936584 287.074097,131.915573 
	C282.269409,135.755585 277.728027,132.799179 274.509491,132.280319 
	C280.504822,130.167282 287.442932,127.748344 294.360992,125.273422 
	C298.248444,123.882690 302.064850,122.284721 305.982178,120.988396 
	C310.370758,119.536125 314.486053,120.279076 318.497406,123.313812 
z"/>
<path fill="#212121" opacity="1.000000" stroke="none" 
	d="
M287.411865,131.989502 
	C295.895050,129.936584 304.671204,127.699661 313.567566,126.155151 
	C315.867584,125.755844 318.544586,127.528389 321.433228,128.225739 
	C322.086121,128.359894 322.354187,128.571594 322.663757,129.366150 
	C323.342041,131.131775 323.978821,132.314529 324.423096,133.656586 
	C324.230591,133.815872 323.847382,134.136551 323.618835,134.102737 
	C323.390289,134.068924 322.929565,134.033371 322.929565,134.033371 
	C317.786682,126.335228 310.345428,128.484055 303.223633,129.507004 
	C298.049957,130.250107 292.906525,131.203690 287.411865,131.989502 
z"/>
<path fill="#3E3E3E" opacity="1.000000" stroke="none" 
	d="
M322.997253,134.481415 
	C322.929565,134.033371 323.390289,134.068924 323.684082,134.430756 
	C323.336060,135.800476 322.694305,136.808334 322.052551,137.816193 
	C313.733215,140.308975 305.397827,142.750076 297.104736,145.327240 
	C294.735504,146.063507 292.488861,147.194214 289.686340,147.224747 
	C290.062531,146.774689 290.347229,146.138153 290.828400,145.902069 
	C300.715942,141.051270 310.579498,136.109039 321.985870,136.000000 
	C322.348938,135.996506 322.705414,135.301895 322.997253,134.481415 
z"/>
<path fill="#181818" opacity="1.000000" stroke="none" 
	d="
M244.133240,171.016510 
	C244.085846,170.850494 244.038452,170.684494 244.009415,170.260223 
	C245.280487,163.055786 246.567123,156.115494 247.769104,149.160583 
	C248.242828,146.419403 248.527664,143.645599 248.966644,140.489197 
	C249.347198,140.227142 249.659622,140.362518 250.075821,140.752228 
	C249.034775,150.936218 247.889954,160.865860 246.099701,170.899170 
	C245.013916,171.007401 244.573578,171.011963 244.133240,171.016510 
z"/>
<path fill="#212121" opacity="1.000000" stroke="none" 
	d="
M322.340271,138.013901 
	C322.694305,136.808334 323.336060,135.800476 323.912598,134.464569 
	C323.847382,134.136551 324.230591,133.815872 324.606323,133.916565 
	C325.607849,135.278824 326.233643,136.540359 327.026367,138.076324 
	C327.779388,138.565506 328.365479,138.780273 328.951538,138.995041 
	C328.962830,141.041473 328.974121,143.087921 328.596771,145.567474 
	C327.750854,146.014938 327.293640,146.029251 326.836395,146.043579 
	C326.583435,145.830475 326.330475,145.617371 325.994934,145.160660 
	C324.817566,142.681900 323.722778,140.446747 322.340271,138.013901 
z"/>
<path fill="#292929" opacity="1.000000" stroke="none" 
	d="
M252.378067,129.020905 
	C252.326202,128.510986 252.597855,128.039062 252.943848,127.283478 
	C254.473343,125.667908 255.928497,124.335999 258.067444,122.894577 
	C259.943970,122.573456 261.136719,122.361839 262.329437,122.150223 
	C264.125397,122.205040 265.921387,122.259857 267.778931,122.625870 
	C263.327972,124.750343 258.815491,126.563614 254.152527,128.691864 
	C253.568573,129.024185 253.135086,129.041534 252.378067,129.020905 
z"/>
<path fill="#000000" opacity="1.000000" stroke="none" 
	d="
M244.051514,171.377136 
	C244.573578,171.011963 245.013916,171.007401 245.784210,171.018585 
	C246.170181,171.785690 246.226212,172.537079 246.144775,173.644745 
	C245.521362,173.997498 245.035446,173.993927 244.185699,173.968079 
	C243.871170,173.209793 243.920471,172.473785 244.051514,171.377136 
z"/>
<path fill="#000000" opacity="1.000000" stroke="none" 
	d="
M245.107407,177.673431 
	C244.788712,177.369659 244.527710,176.731476 244.561584,176.055328 
	C244.959351,176.457916 245.062225,176.898453 245.107407,177.673431 
z"/>
<path fill="#3E3E3E" opacity="1.000000" stroke="none" 
	d="
M286.478699,148.532471 
	C286.462067,148.502167 286.495331,148.562790 286.478699,148.532471 
z"/>
<path fill="#101010" opacity="1.000000" stroke="none" 
	d="
M295.596008,178.687820 
	C295.610138,178.999527 295.295685,179.158096 294.790588,179.067245 
	C294.822479,178.723450 295.044952,178.629059 295.596008,178.687820 
z"/>
<path fill="#7E7E7E" opacity="1.000000" stroke="none" 
	d="
M331.418091,105.009186 
	C330.348785,104.813385 329.701172,104.626801 328.783875,104.005707 
	C331.326752,103.032875 334.139282,102.494568 337.376160,101.965065 
	C340.873627,108.223335 343.989899,114.452278 346.980255,120.741096 
	C347.519836,121.875832 347.541656,123.256744 347.539917,124.745865 
	C344.376160,119.565826 341.294281,114.250679 338.644501,108.728195 
	C337.150360,105.614212 335.316345,104.050430 331.418091,105.009186 
z"/>
<path fill="#838383" opacity="1.000000" stroke="none" 
	d="
M326.859436,137.801895 
	C326.233643,136.540359 325.607849,135.278824 324.798828,133.757278 
	C323.978821,132.314529 323.342041,131.131775 322.760712,129.612152 
	C326.603149,126.697105 326.793060,130.227020 327.703369,132.746155 
	C327.311188,134.761292 327.085297,136.281601 326.859436,137.801895 
z"/>
<path fill="#101010" opacity="1.000000" stroke="none" 
	d="
M327.026367,138.076324 
	C327.085297,136.281601 327.311188,134.761292 327.797546,133.082977 
	C328.407257,134.679474 328.756500,136.433990 329.028625,138.591766 
	C328.365479,138.780273 327.779388,138.565506 327.026367,138.076324 
z"/>
<path fill="#101010" opacity="1.000000" stroke="none" 
	d="
M326.900452,146.394135 
	C327.293640,146.029251 327.750854,146.014938 328.551147,146.005295 
	C328.943451,147.380478 328.992737,148.750977 328.993805,150.533936 
	C328.285248,149.545822 327.624878,148.145264 326.900452,146.394135 
z"/>
<path fill="#777777" opacity="1.000000" stroke="none" 
	d="
M329.271667,92.937790 
	C324.209778,90.484291 326.304016,86.741470 327.505402,83.508919 
	C329.745941,87.069611 331.450378,90.406944 333.154785,93.744278 
	C331.986664,93.499260 330.818512,93.254250 329.271667,92.937790 
z"/>
<path fill="#0F0F0F" opacity="1.000000" stroke="none" 
	d="
M333.521851,93.743515 
	C331.450378,90.406944 329.745941,87.069611 327.873474,83.427544 
	C328.078308,82.830139 328.451202,82.537476 328.989380,81.924194 
	C331.712646,85.412163 334.270721,89.220734 336.826141,93.368584 
	C335.845306,93.719482 334.867096,93.731117 333.521851,93.743515 
z"/>
<path fill="#F2F2F2" opacity="1.000000" stroke="none" 
	d="
M262.046478,121.971497 
	C261.136719,122.361839 259.943970,122.573456 258.370605,122.750084 
	C259.723450,119.613457 261.456970,116.511810 263.481323,113.244537 
	C264.265198,113.123940 264.758240,113.168983 265.628601,113.198364 
	C264.591797,116.052734 263.177643,118.922752 262.046478,121.971497 
z"/>
<path fill="#7E7E7E" opacity="1.000000" stroke="none" 
	d="
M320.394318,103.982941 
	C319.996765,103.103767 319.997162,102.373688 319.997528,101.277832 
	C321.608704,101.617531 323.219879,102.323006 324.736084,103.340614 
	C323.358124,103.812515 322.075195,103.972282 320.394318,103.982941 
z"/>
<path fill="#0F0F0F" opacity="1.000000" stroke="none" 
	d="
M313.900452,69.185043 
	C317.562256,71.433662 321.138306,73.892090 324.876373,76.640686 
	C323.794678,76.902023 322.290558,77.312782 321.357330,76.759911 
	C318.805359,75.248123 316.493866,73.330383 314.027588,71.210632 
	C313.916901,70.363533 313.865814,69.879189 313.900452,69.185043 
z"/>
</svg>